<svg
  width="36"
  height="36"
  viewBox="0 0 36 36"
  fill="none"
  xmlns="http://www.w3.org/2000/svg"
>
  <path
    fill-rule="evenodd"
    clip-rule="evenodd"
    d="M29 16C29 13.863 28.4816 11.8447 27.5641 10.0644L29.774 7.85444C31.1882 10.2405 32 13.0255 32 16C32 19.8992 30.6049 23.4728 28.2868 26.2488L35.5782 33.5402C36.1402 34.1022 36.1402 35.0142 35.5782 35.5762C35.0162 36.1382 34.1042 36.1382 33.5422 35.5762L26.251 28.285C23.4746 30.6042 19.9002 32 16 32C13.0255 32 10.2405 31.1882 7.85444 29.774L10.0644 27.5641C11.8447 28.4816 13.863 29 16 29C23.168 29 29 23.168 29 16ZM5.50628 23.6653C3.93102 21.5147 3 18.864 3 16C3 8.832 8.832 3 16 3C18.864 3 21.5147 3.93102 23.6653 5.50628L5.50628 23.6653ZM25.8111 3.36048C23.1017 1.25427 19.6972 0 16 0C7.164 0 0 7.164 0 16C0 19.6972 1.25427 23.1017 3.36048 25.8111L0.585786 28.5858C-0.195262 29.3668 -0.195262 30.6332 0.585786 31.4142C1.36683 32.1953 2.63317 32.1953 3.41421 31.4142L31.4142 3.41421C32.1953 2.63317 32.1953 1.36683 31.4142 0.585786C30.6332 -0.195262 29.3668 -0.195262 28.5858 0.585786L25.8111 3.36048Z"
    fill="currentColor"
  />
</svg>
